<svg width="20" height="20" viewBox="0 0 20 20" fill="none" xmlns="http://www.w3.org/2000/svg">
<path d="M17.9436 16.0754C16.116 18.4613 13.2377 20 10 20C5.62792 20 1.91116 17.1942 0.552094 13.2851L2.90402 10.9131L2.72967 10.7402C2.97791 10.4907 3.23787 10.23 3.5028 9.9651C4.96092 8.507 6.62525 6.86498 7.27857 6.31214C8.95042 4.89744 11.3714 5.22146 12.8739 6.37718C13.5543 6.90061 15.2175 8.54402 16.6416 9.97972C17.259 10.6022 17.8486 11.2031 18.3226 11.6887C18.4328 11.1429 18.4906 10.5782 18.4906 10C18.4906 5.31079 14.6892 1.50943 10 1.50943C5.31079 1.50943 1.50943 5.31079 1.50943 10L1.50945 10.0141L0.101977 11.4335C0.0347753 10.9654 0 10.4867 0 10C0 4.47715 4.47715 0 10 0C15.5228 0 20 4.47715 20 10C20 11.7038 19.5739 13.308 18.8225 14.712L16.98 12.8296L16.8069 12.9991C16.3509 12.5324 15.7983 11.9695 15.2216 11.3882C13.7448 9.89936 12.2004 8.3824 11.6544 7.96243C10.7041 7.23137 9.35147 7.17803 8.57049 7.83889C7.9974 8.32383 6.40701 9.88934 4.91701 11.3793C4.18174 12.1146 3.48445 12.8177 2.97085 13.3372C2.76031 13.5502 2.58072 13.7322 2.44211 13.8728C3.8499 16.6146 6.70588 18.4906 10 18.4906C12.8272 18.4906 15.3317 17.1087 16.8749 14.9836L17.9436 16.0754Z" fill="#C6FF00"/>
</svg>
