<?xml version="1.0" standalone="no"?>
<!DOCTYPE svg PUBLIC "-//W3C//DTD SVG 20010904//EN"
 "http://www.w3.org/TR/2001/REC-SVG-20010904/DTD/svg10.dtd">
<svg version="1.0" xmlns="http://www.w3.org/2000/svg"
 width="700.000000pt" height="700.000000pt" viewBox="0 0 700.000000 700.000000"
 preserveAspectRatio="xMidYMid meet">
<metadata>
Created by potrace 1.14, written by Peter Selinger 2001-2017
</metadata>
<g transform="translate(0.000000,700.000000) scale(0.100000,-0.100000)"
fill="#000000" stroke="none">
<path d="M3278 6996 c-1 -2 -42 -6 -89 -10 -47 -4 -95 -8 -105 -10 -10 -2 -48
-7 -84 -12 -36 -4 -67 -8 -70 -9 -3 -1 -25 -5 -50 -9 -25 -4 -101 -21 -170
-38 -69 -16 -135 -31 -147 -34 -40 -8 -264 -84 -367 -126 -121 -48 -346 -157
-433 -210 -34 -21 -67 -38 -73 -38 -5 0 -10 -4 -10 -10 0 -5 -5 -10 -11 -10
-9 0 -194 -121 -239 -157 -8 -6 -51 -40 -95 -74 -426 -331 -813 -825 -1020
-1299 -25 -58 -50 -114 -55 -125 -45 -93 -150 -427 -176 -560 -2 -11 -10 -54
-19 -95 -29 -147 -35 -193 -52 -370 -15 -164 -8 -608 13 -713 2 -11 5 -36 6
-54 2 -33 7 -29 249 214 l247 248 6 158 c3 87 7 161 10 165 2 4 7 34 10 67 12
133 73 401 128 560 146 426 378 806 685 1121 91 94 228 219 298 271 129 98
175 130 266 186 278 171 537 280 859 363 48 12 267 54 312 59 29 4 67 9 83 12
60 9 532 12 590 3 33 -4 87 -11 120 -15 92 -11 97 -12 161 -25 445 -88 863
-271 1208 -530 147 -109 208 -162 331 -285 486 -486 774 -1082 860 -1780 13
-107 14 -585 2 -645 -3 -14 -8 -47 -12 -75 -6 -53 -24 -162 -30 -182 -2 -6
-70 56 -152 140 -297 303 -1153 1156 -1308 1303 -308 291 -435 400 -571 487
-161 102 -424 207 -589 233 -22 3 -42 7 -46 9 -15 10 -171 20 -299 19 -236 -1
-449 -51 -643 -151 -220 -114 -356 -236 -1335 -1208 l-514 -511 27 -33 28 -33
-121 -121 c-66 -67 -251 -254 -410 -416 l-290 -293 40 -102 c64 -165 179 -404
251 -521 117 -191 313 -460 401 -551 219 -226 262 -268 386 -371 75 -62 271
-207 325 -240 228 -139 356 -206 540 -285 272 -116 589 -205 874 -244 25 -3
57 -7 70 -10 167 -26 681 -25 843 1 13 2 46 7 73 10 74 11 87 13 120 19 17 4
46 9 65 12 19 3 71 15 115 25 44 11 87 22 96 24 87 20 261 77 411 136 126 50
413 190 468 229 15 11 33 20 39 20 6 0 11 5 11 10 0 6 5 10 10 10 15 0 220
141 330 227 151 117 324 281 450 422 36 41 70 79 75 85 6 6 30 35 53 65 l43
55 -70 70 c-39 39 -122 125 -186 190 -67 69 -119 115 -124 110 -5 -5 -38 -46
-75 -92 -266 -333 -596 -604 -966 -794 -293 -150 -674 -271 -962 -303 -29 -4
-82 -10 -118 -14 -84 -11 -453 -11 -550 -1 -152 17 -195 22 -201 25 -3 2 -28
7 -55 10 -71 10 -335 78 -434 113 -637 223 -1150 621 -1519 1177 -48 72 -104
165 -126 207 l-40 78 830 827 c809 807 902 898 1150 1129 204 191 252 225 376
267 94 32 140 40 263 42 108 1 204 -13 306 -47 159 -52 254 -111 430 -266 200
-177 423 -395 1076 -1049 l600 -603 29 30 29 31 108 -112 c228 -237 528 -539
536 -539 7 0 53 92 112 225 17 39 37 84 45 100 15 36 74 203 104 295 46 147
108 439 127 605 4 33 9 76 11 95 8 69 10 517 2 595 -15 162 -21 220 -24 225
-2 3 -6 30 -10 60 -3 30 -10 71 -15 90 -5 19 -12 51 -15 70 -13 77 -66 272
-106 390 -350 1041 -1163 1856 -2204 2208 -167 56 -419 119 -555 137 -19 3
-46 7 -60 10 -13 2 -54 7 -90 11 -36 3 -76 8 -90 11 -27 5 -536 14 -542 9z"/>
</g>
</svg>
